<svg width="385" height="180" viewBox="0 0 385 180" fill="none" xmlns="http://www.w3.org/2000/svg">
<g clip-path="url(#clip0_1_1654)">
<rect width="385" height="180" fill="url(#paint0_linear_1_1654)"/>
<g style="mix-blend-mode:overlay" clip-path="url(#clip1_1_1654)">
<path d="M399.975 100.676C403.805 111.773 403.076 123.937 397.949 134.498C392.822 145.06 383.715 153.156 372.626 157.011L362.97 160.356L366.315 170.012C367.202 172.573 367.035 175.381 365.852 177.819C364.668 180.257 362.565 182.125 360.004 183.012C357.443 183.899 354.634 183.733 352.196 182.549C349.758 181.366 347.89 179.262 347.003 176.701L343.658 167.045L334.003 170.39C322.905 174.219 310.741 173.491 300.18 168.364C289.619 163.237 281.522 154.13 277.667 143.041C276.78 140.48 276.947 137.672 278.13 135.233C279.314 132.795 281.417 130.927 283.978 130.04C286.539 129.153 289.348 129.32 291.786 130.503C294.224 131.687 296.092 133.791 296.979 136.352C299.049 142.327 303.407 147.236 309.096 149.997C314.785 152.759 321.338 153.148 327.313 151.078L365.937 137.699C371.912 135.63 376.821 131.271 379.583 125.582C382.344 119.893 382.733 113.34 380.663 107.365C378.593 101.389 374.235 96.481 368.546 93.7193C362.857 90.9576 356.304 90.5688 350.329 92.6386L318.142 103.787C307.045 107.631 294.875 106.909 284.31 101.78C273.746 96.6514 265.651 87.5357 261.807 76.4384C257.963 65.3412 258.685 53.1715 263.814 42.6065C268.943 32.0415 278.058 23.9467 289.156 20.1029L292.374 18.988L289.03 9.33208C288.143 6.77118 288.309 3.96279 289.493 1.52472C290.676 -0.913352 292.78 -2.78138 295.341 -3.66843C297.902 -4.55548 300.71 -4.38888 303.148 -3.20528C305.586 -2.02169 307.455 0.0819491 308.342 2.64285L311.686 12.2988L314.905 11.1839C326.003 7.35415 338.166 8.08275 348.728 13.2099C359.289 18.337 367.385 27.4439 371.24 38.5328C372.127 41.0937 371.961 43.9021 370.777 46.3402C369.594 48.7782 367.49 50.6463 364.929 51.5333C362.368 52.4203 359.56 52.2537 357.122 51.0701C354.684 49.8866 352.816 47.7829 351.929 45.222C349.859 39.2466 345.5 34.3381 339.811 31.5764C334.122 28.8146 327.569 28.4259 321.594 30.4957L295.845 39.4147C289.87 41.4844 284.961 45.8432 282.199 51.532C279.438 57.2208 279.049 63.7737 281.119 69.7492C283.188 75.7246 287.547 80.6331 293.236 83.3948C298.925 86.1566 305.478 86.5453 311.453 84.4755L343.64 73.3268C354.737 69.4971 366.901 70.2257 377.462 75.3528C388.023 80.4799 396.12 89.5868 399.975 100.676Z" fill="#717171"/>
</g>
</g>
<defs>
<linearGradient id="paint0_linear_1_1654" x1="126.108" y1="-9.38494e-06" x2="325.147" y2="165.926" gradientUnits="userSpaceOnUse">
<stop stop-color="#141414"/>
<stop offset="1" stop-color="#222222"/>
</linearGradient>
<clipPath id="clip0_1_1654">
<rect width="385" height="180" fill="white"/>
</clipPath>
<clipPath id="clip1_1_1654">
<rect width="218" height="218" fill="white" transform="translate(189 22.3516) rotate(-19.1051)"/>
</clipPath>
</defs>
</svg>
